<?xml version="1.0" standalone="no"?>
<!DOCTYPE svg PUBLIC "-//W3C//DTD SVG 20010904//EN"
 "http://www.w3.org/TR/2001/REC-SVG-20010904/DTD/svg10.dtd">
<svg version="1.0" xmlns="http://www.w3.org/2000/svg"
 width="32.000000pt" height="32.000000pt" viewBox="0 0 32.000000 32.000000"
 preserveAspectRatio="xMidYMid meet">

<g transform="translate(0.000000,32.000000) scale(0.100000,-0.100000)"
fill="#000000" stroke="none">
<path d="M52 168 c-46 -114 -48 -118 -29 -118 6 0 29 42 49 93 53 131 52 127
36 127 -8 0 -31 -41 -56 -102z"/>
<path d="M150 160 c0 -67 4 -110 10 -110 6 0 10 43 10 110 0 67 -4 110 -10
110 -6 0 -10 -43 -10 -110z"/>
<path d="M204 253 c37 -102 83 -203 94 -203 18 0 16 4 -30 118 -25 61 -48 102
-56 102 -9 0 -12 -6 -8 -17z"/>
</g>
</svg>
